<mxfile host="app.diagrams.net" agent="Mozilla/5.0 (Macintosh; Intel Mac OS X 10_15_7) AppleWebKit/605.1.15 (KHTML, like Gecko) Version/18.0 Safari/605.1.15" version="28.0.9">
  <diagram name="第 1 页" id="8QuAN-rGa3oi7sb2--Au">
    <mxGraphModel dx="946" dy="540" grid="1" gridSize="10" guides="1" tooltips="1" connect="1" arrows="1" fold="1" page="1" pageScale="1" pageWidth="827" pageHeight="1169" math="0" shadow="0">
      <root>
        <mxCell id="0" />
        <mxCell id="1" parent="0" />
        <mxCell id="06Fe5irtW_8lCx-ZwBkL-1" value="" style="rounded=1;whiteSpace=wrap;html=1;arcSize=2;fillColor=#f5f5f5;fontColor=#333333;strokeColor=#666666;" parent="1" vertex="1">
          <mxGeometry x="200" y="131" width="640" height="350" as="geometry" />
        </mxCell>
        <mxCell id="06Fe5irtW_8lCx-ZwBkL-2" value="" style="rounded=1;whiteSpace=wrap;html=1;dashed=1;dashPattern=1 4;movable=1;resizable=1;rotatable=1;deletable=1;editable=1;locked=0;connectable=1;fillColor=#ffe6cc;strokeColor=#d79b00;" parent="1" vertex="1">
          <mxGeometry x="510" y="381" width="320" height="90" as="geometry" />
        </mxCell>
        <mxCell id="06Fe5irtW_8lCx-ZwBkL-3" style="edgeStyle=orthogonalEdgeStyle;rounded=0;orthogonalLoop=1;jettySize=auto;html=1;exitX=0.5;exitY=0;exitDx=0;exitDy=0;entryX=0.5;entryY=1;entryDx=0;entryDy=0;fillColor=#ffe6cc;strokeColor=#d79b00;strokeWidth=2;" parent="1" source="06Fe5irtW_8lCx-ZwBkL-4" target="06Fe5irtW_8lCx-ZwBkL-6" edge="1">
          <mxGeometry relative="1" as="geometry" />
        </mxCell>
        <mxCell id="06Fe5irtW_8lCx-ZwBkL-4" value="&lt;font style=&quot;font-size: 18px;&quot;&gt;新获取信息&lt;/font&gt;" style="shape=document;whiteSpace=wrap;html=1;boundedLbl=1;fillColor=light-dark(#a8dadc, #ededed);" parent="1" vertex="1">
          <mxGeometry x="327.5" y="491" width="125" height="70" as="geometry" />
        </mxCell>
        <mxCell id="06Fe5irtW_8lCx-ZwBkL-5" style="edgeStyle=orthogonalEdgeStyle;rounded=0;orthogonalLoop=1;jettySize=auto;html=1;exitX=0.5;exitY=0;exitDx=0;exitDy=0;entryX=0.5;entryY=1;entryDx=0;entryDy=0;strokeWidth=2;fillColor=#d5e8d4;strokeColor=#82b366;" parent="1" source="06Fe5irtW_8lCx-ZwBkL-6" target="06Fe5irtW_8lCx-ZwBkL-7" edge="1">
          <mxGeometry relative="1" as="geometry" />
        </mxCell>
        <mxCell id="06Fe5irtW_8lCx-ZwBkL-6" value="&lt;font style=&quot;font-size: 18px;&quot;&gt;记忆提取模块&lt;/font&gt;" style="rounded=1;whiteSpace=wrap;html=1;fillColor=#ffe6cc;strokeColor=#d79b00;" parent="1" vertex="1">
          <mxGeometry x="320" y="396" width="140" height="60" as="geometry" />
        </mxCell>
        <mxCell id="06Fe5irtW_8lCx-ZwBkL-7" value="&lt;font style=&quot;font-size: 18px;&quot;&gt;记忆链接模块&lt;/font&gt;" style="rounded=1;whiteSpace=wrap;html=1;fillColor=#d5e8d4;strokeColor=#82b366;" parent="1" vertex="1">
          <mxGeometry x="320" y="294.75" width="140" height="60" as="geometry" />
        </mxCell>
        <mxCell id="06Fe5irtW_8lCx-ZwBkL-8" value="" style="shape=cube;whiteSpace=wrap;html=1;boundedLbl=1;backgroundOutline=1;darkOpacity=0.05;darkOpacity2=0.1;movable=1;resizable=1;rotatable=1;deletable=1;editable=1;locked=0;connectable=1;fillColor=#e1d5e7;strokeColor=#9673a6;" parent="1" vertex="1">
          <mxGeometry x="525" y="431" width="60" height="30" as="geometry" />
        </mxCell>
        <mxCell id="06Fe5irtW_8lCx-ZwBkL-9" value="" style="shape=cube;whiteSpace=wrap;html=1;boundedLbl=1;backgroundOutline=1;darkOpacity=0.05;darkOpacity2=0.1;movable=1;resizable=1;rotatable=1;deletable=1;editable=1;locked=0;connectable=1;fillColor=#e1d5e7;strokeColor=#9673a6;" parent="1" vertex="1">
          <mxGeometry x="585" y="431" width="60" height="30" as="geometry" />
        </mxCell>
        <mxCell id="06Fe5irtW_8lCx-ZwBkL-10" value="" style="shape=cube;whiteSpace=wrap;html=1;boundedLbl=1;backgroundOutline=1;darkOpacity=0.05;darkOpacity2=0.1;movable=1;resizable=1;rotatable=1;deletable=1;editable=1;locked=0;connectable=1;fillColor=#e1d5e7;strokeColor=#9673a6;" parent="1" vertex="1">
          <mxGeometry x="645" y="431" width="60" height="30" as="geometry" />
        </mxCell>
        <mxCell id="06Fe5irtW_8lCx-ZwBkL-11" value="" style="shape=cube;whiteSpace=wrap;html=1;boundedLbl=1;backgroundOutline=1;darkOpacity=0.05;darkOpacity2=0.1;movable=1;resizable=1;rotatable=1;deletable=1;editable=1;locked=0;connectable=1;fillColor=#e1d5e7;strokeColor=#9673a6;" parent="1" vertex="1">
          <mxGeometry x="705" y="431" width="60" height="30" as="geometry" />
        </mxCell>
        <mxCell id="06Fe5irtW_8lCx-ZwBkL-12" value="" style="shape=cube;whiteSpace=wrap;html=1;boundedLbl=1;backgroundOutline=1;darkOpacity=0.05;darkOpacity2=0.1;movable=1;resizable=1;rotatable=1;deletable=1;editable=1;locked=0;connectable=1;fillColor=#e1d5e7;strokeColor=#9673a6;" parent="1" vertex="1">
          <mxGeometry x="525" y="391" width="60" height="30" as="geometry" />
        </mxCell>
        <mxCell id="06Fe5irtW_8lCx-ZwBkL-13" value="" style="shape=cube;whiteSpace=wrap;html=1;boundedLbl=1;backgroundOutline=1;darkOpacity=0.05;darkOpacity2=0.1;movable=1;resizable=1;rotatable=1;deletable=1;editable=1;locked=0;connectable=1;fillColor=#e1d5e7;strokeColor=#9673a6;" parent="1" vertex="1">
          <mxGeometry x="585" y="391" width="60" height="30" as="geometry" />
        </mxCell>
        <mxCell id="06Fe5irtW_8lCx-ZwBkL-14" value="" style="shape=cube;whiteSpace=wrap;html=1;boundedLbl=1;backgroundOutline=1;darkOpacity=0.05;darkOpacity2=0.1;movable=1;resizable=1;rotatable=1;deletable=1;editable=1;locked=0;connectable=1;fillColor=#e1d5e7;strokeColor=#9673a6;" parent="1" vertex="1">
          <mxGeometry x="645" y="391" width="60" height="30" as="geometry" />
        </mxCell>
        <mxCell id="06Fe5irtW_8lCx-ZwBkL-15" value="" style="shape=cube;whiteSpace=wrap;html=1;boundedLbl=1;backgroundOutline=1;darkOpacity=0.05;darkOpacity2=0.1;movable=1;resizable=1;rotatable=1;deletable=1;editable=1;locked=0;connectable=1;fillColor=#e1d5e7;strokeColor=#9673a6;" parent="1" vertex="1">
          <mxGeometry x="705" y="391" width="60" height="30" as="geometry" />
        </mxCell>
        <mxCell id="06Fe5irtW_8lCx-ZwBkL-16" value="" style="rounded=1;whiteSpace=wrap;html=1;dashed=1;dashPattern=1 4;movable=1;resizable=1;rotatable=1;deletable=1;editable=1;locked=0;connectable=1;fillColor=#d5e8d4;strokeColor=#82b366;" parent="1" vertex="1">
          <mxGeometry x="510" y="271" width="320" height="103.75" as="geometry" />
        </mxCell>
        <mxCell id="06Fe5irtW_8lCx-ZwBkL-17" value="" style="rounded=1;whiteSpace=wrap;html=1;dashed=1;dashPattern=1 4;movable=1;resizable=1;rotatable=1;deletable=1;editable=1;locked=0;connectable=1;fillColor=#d5e8d4;strokeColor=#82b366;" parent="1" vertex="1">
          <mxGeometry x="520" y="277.25" width="110" height="95" as="geometry" />
        </mxCell>
        <mxCell id="06Fe5irtW_8lCx-ZwBkL-18" value="" style="shape=cube;whiteSpace=wrap;html=1;boundedLbl=1;backgroundOutline=1;darkOpacity=0.05;darkOpacity2=0.1;movable=1;resizable=1;rotatable=1;deletable=1;editable=1;locked=0;connectable=1;fillColor=#e1d5e7;strokeColor=#9673a6;" parent="1" vertex="1">
          <mxGeometry x="570" y="291" width="50" height="22.5" as="geometry" />
        </mxCell>
        <mxCell id="06Fe5irtW_8lCx-ZwBkL-19" value="" style="shape=cube;whiteSpace=wrap;html=1;boundedLbl=1;backgroundOutline=1;darkOpacity=0.05;darkOpacity2=0.1;movable=1;resizable=1;rotatable=1;deletable=1;editable=1;locked=0;connectable=1;fillColor=#e1d5e7;strokeColor=#9673a6;" parent="1" vertex="1">
          <mxGeometry x="570" y="313.5" width="50" height="22.5" as="geometry" />
        </mxCell>
        <mxCell id="06Fe5irtW_8lCx-ZwBkL-20" value="" style="shape=cube;whiteSpace=wrap;html=1;boundedLbl=1;backgroundOutline=1;darkOpacity=0.05;darkOpacity2=0.1;movable=1;resizable=1;rotatable=1;deletable=1;editable=1;locked=0;connectable=1;fillColor=#e1d5e7;strokeColor=#9673a6;" parent="1" vertex="1">
          <mxGeometry x="570" y="336" width="50" height="22.5" as="geometry" />
        </mxCell>
        <mxCell id="06Fe5irtW_8lCx-ZwBkL-21" value="" style="shape=actor;whiteSpace=wrap;html=1;movable=1;resizable=1;rotatable=1;deletable=1;editable=1;locked=0;connectable=1;fillColor=#dae8fc;strokeColor=#6c8ebf;" parent="1" vertex="1">
          <mxGeometry x="525" y="294.75" width="40" height="60" as="geometry" />
        </mxCell>
        <mxCell id="06Fe5irtW_8lCx-ZwBkL-22" value="&lt;font style=&quot;font-size: 24px;&quot;&gt;...&lt;/font&gt;" style="text;html=1;align=center;verticalAlign=middle;whiteSpace=wrap;rounded=0;movable=1;resizable=1;rotatable=1;deletable=1;editable=1;locked=0;connectable=1;" parent="1" vertex="1">
          <mxGeometry x="770" y="391" width="60" height="30" as="geometry" />
        </mxCell>
        <mxCell id="06Fe5irtW_8lCx-ZwBkL-23" value="&lt;font style=&quot;font-size: 24px;&quot;&gt;...&lt;/font&gt;" style="text;html=1;align=center;verticalAlign=middle;whiteSpace=wrap;rounded=0;movable=1;resizable=1;rotatable=1;deletable=1;editable=1;locked=0;connectable=1;" parent="1" vertex="1">
          <mxGeometry x="770" y="427" width="60" height="30" as="geometry" />
        </mxCell>
        <mxCell id="06Fe5irtW_8lCx-ZwBkL-24" value="" style="rounded=1;whiteSpace=wrap;html=1;dashed=1;dashPattern=1 4;movable=1;resizable=1;rotatable=1;deletable=1;editable=1;locked=0;connectable=1;fillColor=#d5e8d4;strokeColor=#82b366;" parent="1" vertex="1">
          <mxGeometry x="665" y="274.75" width="110" height="95" as="geometry" />
        </mxCell>
        <mxCell id="06Fe5irtW_8lCx-ZwBkL-25" value="" style="shape=cube;whiteSpace=wrap;html=1;boundedLbl=1;backgroundOutline=1;darkOpacity=0.05;darkOpacity2=0.1;movable=1;resizable=1;rotatable=1;deletable=1;editable=1;locked=0;connectable=1;fillColor=#e1d5e7;strokeColor=#9673a6;" parent="1" vertex="1">
          <mxGeometry x="715" y="288.5" width="50" height="22.5" as="geometry" />
        </mxCell>
        <mxCell id="06Fe5irtW_8lCx-ZwBkL-26" value="" style="shape=cube;whiteSpace=wrap;html=1;boundedLbl=1;backgroundOutline=1;darkOpacity=0.05;darkOpacity2=0.1;movable=1;resizable=1;rotatable=1;deletable=1;editable=1;locked=0;connectable=1;fillColor=#e1d5e7;strokeColor=#9673a6;" parent="1" vertex="1">
          <mxGeometry x="715" y="311" width="50" height="22.5" as="geometry" />
        </mxCell>
        <mxCell id="06Fe5irtW_8lCx-ZwBkL-27" value="" style="shape=cube;whiteSpace=wrap;html=1;boundedLbl=1;backgroundOutline=1;darkOpacity=0.05;darkOpacity2=0.1;movable=1;resizable=1;rotatable=1;deletable=1;editable=1;locked=0;connectable=1;fillColor=#e1d5e7;strokeColor=#9673a6;" parent="1" vertex="1">
          <mxGeometry x="715" y="333.5" width="50" height="22.5" as="geometry" />
        </mxCell>
        <mxCell id="06Fe5irtW_8lCx-ZwBkL-28" value="" style="shape=actor;whiteSpace=wrap;html=1;movable=1;resizable=1;rotatable=1;deletable=1;editable=1;locked=0;connectable=1;fillColor=#dae8fc;strokeColor=#6c8ebf;" parent="1" vertex="1">
          <mxGeometry x="670" y="292.25" width="40" height="60" as="geometry" />
        </mxCell>
        <mxCell id="06Fe5irtW_8lCx-ZwBkL-29" value="&lt;font style=&quot;font-size: 24px;&quot;&gt;...&lt;/font&gt;" style="text;html=1;align=center;verticalAlign=middle;whiteSpace=wrap;rounded=0;movable=1;resizable=1;rotatable=1;deletable=1;editable=1;locked=0;connectable=1;" parent="1" vertex="1">
          <mxGeometry x="770" y="303.5" width="60" height="30" as="geometry" />
        </mxCell>
        <mxCell id="06Fe5irtW_8lCx-ZwBkL-30" value="" style="endArrow=classic;startArrow=classic;html=1;rounded=0;exitX=1;exitY=0.5;exitDx=0;exitDy=0;strokeWidth=2;movable=1;resizable=1;rotatable=1;deletable=1;editable=1;locked=0;connectable=1;" parent="1" source="06Fe5irtW_8lCx-ZwBkL-17" edge="1">
          <mxGeometry width="50" height="50" relative="1" as="geometry">
            <mxPoint x="630" y="325.75" as="sourcePoint" />
            <mxPoint x="665" y="324.75" as="targetPoint" />
          </mxGeometry>
        </mxCell>
        <mxCell id="06Fe5irtW_8lCx-ZwBkL-31" value="" style="shape=flexArrow;endArrow=classic;startArrow=classic;html=1;rounded=0;fillColor=#d5e8d4;strokeColor=#82b366;" parent="1" edge="1">
          <mxGeometry width="100" height="100" relative="1" as="geometry">
            <mxPoint x="460" y="324.25" as="sourcePoint" />
            <mxPoint x="510" y="324.25" as="targetPoint" />
          </mxGeometry>
        </mxCell>
        <mxCell id="06Fe5irtW_8lCx-ZwBkL-32" value="" style="shape=flexArrow;endArrow=classic;startArrow=classic;html=1;rounded=0;fillColor=#ffe6cc;strokeColor=#d79b00;" parent="1" edge="1">
          <mxGeometry width="100" height="100" relative="1" as="geometry">
            <mxPoint x="460" y="425.5" as="sourcePoint" />
            <mxPoint x="510" y="425.5" as="targetPoint" />
          </mxGeometry>
        </mxCell>
        <mxCell id="06Fe5irtW_8lCx-ZwBkL-33" style="edgeStyle=orthogonalEdgeStyle;rounded=0;orthogonalLoop=1;jettySize=auto;html=1;exitX=0.5;exitY=1;exitDx=0;exitDy=0;entryX=0;entryY=0.5;entryDx=0;entryDy=0;fillColor=#f8cecc;strokeColor=#b85450;strokeWidth=2;" parent="1" source="06Fe5irtW_8lCx-ZwBkL-37" target="06Fe5irtW_8lCx-ZwBkL-6" edge="1">
          <mxGeometry relative="1" as="geometry" />
        </mxCell>
        <mxCell id="06Fe5irtW_8lCx-ZwBkL-34" style="edgeStyle=orthogonalEdgeStyle;rounded=0;orthogonalLoop=1;jettySize=auto;html=1;exitX=1;exitY=0.5;exitDx=0;exitDy=0;entryX=0;entryY=0.5;entryDx=0;entryDy=0;strokeWidth=2;fillColor=#f8cecc;strokeColor=#b85450;" parent="1" source="06Fe5irtW_8lCx-ZwBkL-37" target="06Fe5irtW_8lCx-ZwBkL-38" edge="1">
          <mxGeometry relative="1" as="geometry" />
        </mxCell>
        <mxCell id="06Fe5irtW_8lCx-ZwBkL-35" style="edgeStyle=orthogonalEdgeStyle;rounded=0;orthogonalLoop=1;jettySize=auto;html=1;exitX=0.5;exitY=0;exitDx=0;exitDy=0;strokeColor=#b85450;fontColor=#1D3557;fillColor=#f8cecc;strokeWidth=2;entryX=0.5;entryY=1;entryDx=0;entryDy=0;" parent="1" source="06Fe5irtW_8lCx-ZwBkL-37" target="06Fe5irtW_8lCx-ZwBkL-39" edge="1">
          <mxGeometry relative="1" as="geometry">
            <mxPoint x="250" y="151" as="targetPoint" />
          </mxGeometry>
        </mxCell>
        <mxCell id="06Fe5irtW_8lCx-ZwBkL-36" style="edgeStyle=orthogonalEdgeStyle;rounded=0;orthogonalLoop=1;jettySize=auto;html=1;exitX=0.5;exitY=1;exitDx=0;exitDy=0;entryX=0;entryY=0.5;entryDx=0;entryDy=0;strokeColor=#b85450;fontColor=#1D3557;fillColor=#f8cecc;strokeWidth=2;" parent="1" target="06Fe5irtW_8lCx-ZwBkL-7" edge="1">
          <mxGeometry relative="1" as="geometry">
            <mxPoint x="250" y="277.25" as="sourcePoint" />
            <Array as="points">
              <mxPoint x="250" y="325" />
            </Array>
          </mxGeometry>
        </mxCell>
        <mxCell id="06Fe5irtW_8lCx-ZwBkL-37" value="&lt;font style=&quot;font-size: 18px;&quot;&gt;调&lt;/font&gt;&lt;div&gt;&lt;font size=&quot;3&quot;&gt;度&lt;/font&gt;&lt;/div&gt;&lt;div&gt;&lt;font size=&quot;3&quot;&gt;器&lt;/font&gt;&lt;/div&gt;" style="rhombus;whiteSpace=wrap;html=1;fillColor=#f8cecc;strokeColor=#b85450;" parent="1" vertex="1">
          <mxGeometry x="210" y="183.5" width="80" height="80" as="geometry" />
        </mxCell>
        <mxCell id="06Fe5irtW_8lCx-ZwBkL-38" value="&lt;font size=&quot;4&quot;&gt;记忆调度队列&lt;/font&gt;" style="ellipse;whiteSpace=wrap;html=1;fillColor=#f8cecc;strokeColor=#b85450;" parent="1" vertex="1">
          <mxGeometry x="320" y="196.5" width="140" height="54" as="geometry" />
        </mxCell>
        <mxCell id="06Fe5irtW_8lCx-ZwBkL-39" value="&lt;font style=&quot;font-size: 18px;&quot;&gt;最终输出&lt;/font&gt;" style="rounded=1;whiteSpace=wrap;html=1;strokeColor=#457B9D;fontColor=#1D3557;fillColor=#A8DADC;" parent="1" vertex="1">
          <mxGeometry x="190" y="40" width="120" height="60" as="geometry" />
        </mxCell>
        <mxCell id="06Fe5irtW_8lCx-ZwBkL-40" value="&lt;font size=&quot;4&quot;&gt;提问&lt;/font&gt;" style="rounded=1;whiteSpace=wrap;html=1;strokeColor=#457B9D;fontColor=#1D3557;fillColor=#A8DADC;" parent="1" vertex="1">
          <mxGeometry x="40" y="193.5" width="120" height="60" as="geometry" />
        </mxCell>
        <mxCell id="06Fe5irtW_8lCx-ZwBkL-41" style="edgeStyle=orthogonalEdgeStyle;rounded=0;orthogonalLoop=1;jettySize=auto;html=1;exitX=1;exitY=0.5;exitDx=0;exitDy=0;entryX=0;entryY=0.5;entryDx=0;entryDy=0;strokeColor=#b85450;fontColor=#1D3557;fillColor=#f8cecc;strokeWidth=2;" parent="1" source="06Fe5irtW_8lCx-ZwBkL-40" target="06Fe5irtW_8lCx-ZwBkL-37" edge="1">
          <mxGeometry relative="1" as="geometry" />
        </mxCell>
        <mxCell id="06Fe5irtW_8lCx-ZwBkL-42" value="&lt;font style=&quot;font-size: 18px;&quot;&gt;&lt;b&gt;记忆系统&lt;/b&gt;&lt;/font&gt;" style="text;html=1;align=center;verticalAlign=middle;whiteSpace=wrap;rounded=0;fontColor=#1D3557;" parent="1" vertex="1">
          <mxGeometry x="430" y="141" width="121" height="30" as="geometry" />
        </mxCell>
        <mxCell id="06Fe5irtW_8lCx-ZwBkL-43" value="" style="rounded=1;whiteSpace=wrap;html=1;dashed=1;dashPattern=1 4;movable=1;resizable=1;rotatable=1;deletable=1;editable=1;locked=0;connectable=1;fillColor=#f8cecc;strokeColor=#b85450;" parent="1" vertex="1">
          <mxGeometry x="510" y="174" width="320" height="89.5" as="geometry" />
        </mxCell>
        <mxCell id="06Fe5irtW_8lCx-ZwBkL-44" value="" style="shape=image;imageAspect=0;aspect=fixed;verticalLabelPosition=bottom;verticalAlign=top;image=data:image/svg+xml,PHN2ZyB4bWxucz0iaHR0cDovL3d3dy53My5vcmcvMjAwMC9zdmciIHZlcnNpb249IjEuMSIgdmlld0JveD0iMTc5LjE5OTk5Njk0ODI0MjIgMzA3LjAyOTMyNzM5MjU3ODEgNjY1LjYyMTI3Njg1NTQ2ODggNDA5Ljk0MTMxNDY5NzI2NTYiIGhlaWdodD0iODAuMDY2NjYzMDI2ODA5NjkiIHdpZHRoPSIxMzAuMDA0MTU1NjM1ODMzNzQiIGNsYXNzPSJpY29uIj48cGF0aCBmaWxsPSIjMDA5OEYwIiBkPSJNNzkwLjM1NzMzMyA0OTUuODcyYy03LjA4MjY2NyAwLTEyLjgtNS43MTczMzMtMTIuOC0xMi44VjM2NC4zNzMzMzNjMC0xNy40OTMzMzMtMTQuMjUwNjY3LTMxLjc0NC0zMS43NDQtMzEuNzQ0SDUyNC41NDRjLTE3LjQ5MzMzMyAwLTMxLjc0NCAxNC4yNTA2NjctMzEuNzQ0IDMxLjc0NHYzNy4xMmMwIDcuMDgyNjY3LTUuNzE3MzMzIDEyLjgtMTIuOCAxMi44cy0xMi44LTUuNzE3MzMzLTEyLjgtMTIuOFYzNjQuMzczMzMzYzAtMzEuNjU4NjY3IDI1LjY4NTMzMy01Ny4zNDQgNTcuMzQ0LTU3LjM0NEg3NDUuODEzMzMzYzMxLjY1ODY2NyAwIDU3LjM0NCAyNS42ODUzMzMgNTcuMzQ0IDU3LjM0NHYxMTguNjk4NjY3YzAgNy4wODI2NjctNS43MTczMzMgMTIuOC0xMi44IDEyLjh6Ii8+PHBhdGggZmlsbD0iIzAwOThGMCIgZD0iTTc5MC42MTMzMzMgNDk1Ljg3MmMtMy4yNDI2NjcgMC02LjU3MDY2Ny0xLjI4LTkuMDQ1MzMzLTMuNzU0NjY3YTEyLjcxNDY2NyAxMi43MTQ2NjcgMCAwIDEgMC0xOC4wOTA2NjZsNDEuMzg2NjY3LTQxLjM4NjY2N2ExMi43MTQ2NjcgMTIuNzE0NjY3IDAgMCAxIDE4LjA5MDY2NiAwYzUuMDM0NjY3IDUuMDM0NjY3IDUuMDM0NjY3IDEzLjE0MTMzMyAwIDE4LjA5MDY2N2wtNDEuMzg2NjY2IDQxLjM4NjY2NmMtMi40NzQ2NjcgMi40NzQ2NjctNS44MDI2NjcgMy43NTQ2NjctOS4wNDUzMzQgMy43NTQ2Njd6Ii8+PHBhdGggZmlsbD0iIzAwOThGMCIgZD0iTTc5MC42MTMzMzMgNDk1Ljg3MmMtMy4yNDI2NjcgMC02LjU3MDY2Ny0xLjI4LTkuMDQ1MzMzLTMuNzU0NjY3bC00MS40NzItNDEuMzg2NjY2YTEyLjcxNDY2NyAxMi43MTQ2NjcgMCAwIDEgMC0xOC4wOTA2NjcgMTIuNzE0NjY3IDEyLjcxNDY2NyAwIDAgMSAxOC4wOTA2NjcgMGw0MS40NzIgNDEuMzg2NjY3YzUuMDM0NjY3IDUuMDM0NjY3IDUuMDM0NjY3IDEzLjE0MTMzMyAwIDE4LjA5MDY2Ni0yLjQ3NDY2NyAyLjQ3NDY2Ny01LjcxNzMzMyAzLjc1NDY2Ny05LjA0NTMzNCAzLjc1NDY2N3oiLz48cGF0aCBmaWxsPSIjMzMzMzMzIiBkPSJNNDgwIDU3MS4xMzZjLTMzLjUzNiAwLTYwLjc1NzMzMy0yNy4yMjEzMzMtNjAuNzU3MzMzLTYwLjc1NzMzM3MyNy4yMjEzMzMtNjAuNzU3MzMzIDYwLjc1NzMzMy02MC43NTczMzQgNjAuNzU3MzMzIDI3LjIyMTMzMyA2MC43NTczMzMgNjAuNzU3MzM0LTI3LjIyMTMzMyA2MC43NTczMzMtNjAuNzU3MzMzIDYwLjc1NzMzM3ogbTAtOTUuOTE0NjY3Yy0xOS4zNzA2NjcgMC0zNS4xNTczMzMgMTUuNzg2NjY3LTM1LjE1NzMzMyAzNS4xNTczMzRzMTUuNzg2NjY3IDM1LjE1NzMzMyAzNS4xNTczMzMgMzUuMTU3MzMzIDM1LjE1NzMzMy0xNS43ODY2NjcgMzUuMTU3MzMzLTM1LjE1NzMzMy0xNS43ODY2NjctMzUuMTU3MzMzLTM1LjE1NzMzMy0zNS4xNTczMzR6TTU3NiA3MTYuOTcwNjY3Yy03LjA4MjY2NyAwLTEyLjgtNS43MTczMzMtMTIuOC0xMi44IDAtNDUuOTA5MzMzLTM3LjI5MDY2Ny04My4yLTgzLjItODMuMnMtODMuMiAzNy4yOTA2NjctODMuMiA4My4yYzAgNy4wODI2NjctNS43MTczMzMgMTIuOC0xMi44IDEyLjhzLTEyLjgtNS43MTczMzMtMTIuOC0xMi44YzAtNTkuOTg5MzMzIDQ4LjgxMDY2Ny0xMDguOCAxMDguOC0xMDguOFM1ODguOCA2NDQuMTgxMzMzIDU4OC44IDcwNC4xNzA2NjdjMCA3LjA4MjY2Ny01LjcxNzMzMyAxMi44LTEyLjggMTIuOHoiLz48cGF0aCBmaWxsPSIjMzMzMzMzIiBkPSJNNjcyIDU3MS4xMzZjLTMzLjUzNiAwLTYwLjc1NzMzMy0yNy4yMjEzMzMtNjAuNzU3MzMzLTYwLjc1NzMzM3MyNy4yMjEzMzMtNjAuNzU3MzMzIDYwLjc1NzMzMy02MC43NTczMzQgNjAuNzU3MzMzIDI3LjIyMTMzMyA2MC43NTczMzMgNjAuNzU3MzM0LTI3LjIyMTMzMyA2MC43NTczMzMtNjAuNzU3MzMzIDYwLjc1NzMzM3ogbTAtOTUuOTE0NjY3Yy0xOS4zNzA2NjcgMC0zNS4xNTczMzMgMTUuNzg2NjY3LTM1LjE1NzMzMyAzNS4xNTczMzRzMTUuNzg2NjY3IDM1LjE1NzMzMyAzNS4xNTczMzMgMzUuMTU3MzMzIDM1LjE1NzMzMy0xNS43ODY2NjcgMzUuMTU3MzMzLTM1LjE1NzMzMy0xNS43ODY2NjctMzUuMTU3MzMzLTM1LjE1NzMzMy0zNS4xNTczMzR6TTc2OCA3MTYuOTcwNjY3Yy03LjA4MjY2NyAwLTEyLjgtNS43MTczMzMtMTIuOC0xMi44IDAtNDUuOTA5MzMzLTM3LjI5MDY2Ny04My4yLTgzLjItODMuMlM1ODguOCA2NTguMjYxMzMzIDU4OC44IDcwNC4xNzA2NjdjMCA3LjA4MjY2Ny01LjcxNzMzMyAxMi44LTEyLjggMTIuOHMtMTIuOC01LjcxNzMzMy0xMi44LTEyLjhjMC01OS45ODkzMzMgNDguODEwNjY3LTEwOC44IDEwOC44LTEwOC44Uzc4MC44IDY0NC4xODEzMzMgNzgwLjggNzA0LjE3MDY2N2MwIDcuMDgyNjY3LTUuNzE3MzMzIDEyLjgtMTIuOCAxMi44eiIvPjxwYXRoIGZpbGw9IiMzMzMzMzMiIGQ9Ik0zODQgNzE2Ljk3MDY2N2MtNy4wODI2NjcgMC0xMi44LTUuNzE3MzMzLTEyLjgtMTIuOCAwLTQ1LjkwOTMzMy0zNy4yOTA2NjctODMuMi04My4yLTgzLjJTMjA0LjggNjU4LjI2MTMzMyAyMDQuOCA3MDQuMTcwNjY3YzAgNy4wODI2NjctNS43MTczMzMgMTIuOC0xMi44IDEyLjhzLTEyLjgtNS43MTczMzMtMTIuOC0xMi44YzAtNTkuOTg5MzMzIDQ4LjgxMDY2Ny0xMDguOCAxMDguOC0xMDguOFMzOTYuOCA2NDQuMTgxMzMzIDM5Ni44IDcwNC4xNzA2NjdjMCA3LjA4MjY2Ny01LjcxNzMzMyAxMi44LTEyLjggMTIuOHpNMjg4IDU3MS4xMzZjLTMzLjUzNiAwLTYwLjc1NzMzMy0yNy4yMjEzMzMtNjAuNzU3MzMzLTYwLjc1NzMzM3MyNy4yMjEzMzMtNjAuNzU3MzMzIDYwLjc1NzMzMy02MC43NTczMzQgNjAuNzU3MzMzIDI3LjIyMTMzMyA2MC43NTczMzMgNjAuNzU3MzM0LTI3LjIyMTMzMyA2MC43NTczMzMtNjAuNzU3MzMzIDYwLjc1NzMzM3ogbTAtOTUuOTE0NjY3Yy0xOS4zNzA2NjcgMC0zNS4xNTczMzMgMTUuNzg2NjY3LTM1LjE1NzMzMyAzNS4xNTczMzRzMTUuNzg2NjY3IDM1LjE1NzMzMyAzNS4xNTczMzMgMzUuMTU3MzMzIDM1LjE1NzMzMy0xNS43ODY2NjcgMzUuMTU3MzMzLTM1LjE1NzMzMy0xNS43ODY2NjctMzUuMTU3MzMzLTM1LjE1NzMzMy0zNS4xNTczMzR6Ii8+PC9zdmc+;" parent="1" vertex="1">
          <mxGeometry x="535" y="189.52" width="95" height="58.46" as="geometry" />
        </mxCell>
        <mxCell id="06Fe5irtW_8lCx-ZwBkL-45" value="" style="shape=flexArrow;endArrow=classic;startArrow=classic;html=1;rounded=0;fillColor=#f8cecc;strokeColor=#b85450;" parent="1" edge="1">
          <mxGeometry width="100" height="100" relative="1" as="geometry">
            <mxPoint x="460" y="223" as="sourcePoint" />
            <mxPoint x="510" y="223" as="targetPoint" />
          </mxGeometry>
        </mxCell>
        <mxCell id="06Fe5irtW_8lCx-ZwBkL-46" value="" style="shape=image;imageAspect=0;aspect=fixed;verticalLabelPosition=bottom;verticalAlign=top;image=data:image/svg+xml,PHN2ZyB4bWxucz0iaHR0cDovL3d3dy53My5vcmcvMjAwMC9zdmciIHZlcnNpb249IjEuMSIgdmlld0JveD0iMTc5LjE5OTk5Njk0ODI0MjIgMzA3LjAyOTMyNzM5MjU3ODEgNjY1LjYyMTI3Njg1NTQ2ODggNDA5Ljk0MTMxNDY5NzI2NTYiIGhlaWdodD0iODAuMDY2NjYzMDI2ODA5NjkiIHdpZHRoPSIxMzAuMDA0MTU1NjM1ODMzNzQiIGNsYXNzPSJpY29uIj48cGF0aCBmaWxsPSIjMDA5OEYwIiBkPSJNNzkwLjM1NzMzMyA0OTUuODcyYy03LjA4MjY2NyAwLTEyLjgtNS43MTczMzMtMTIuOC0xMi44VjM2NC4zNzMzMzNjMC0xNy40OTMzMzMtMTQuMjUwNjY3LTMxLjc0NC0zMS43NDQtMzEuNzQ0SDUyNC41NDRjLTE3LjQ5MzMzMyAwLTMxLjc0NCAxNC4yNTA2NjctMzEuNzQ0IDMxLjc0NHYzNy4xMmMwIDcuMDgyNjY3LTUuNzE3MzMzIDEyLjgtMTIuOCAxMi44cy0xMi44LTUuNzE3MzMzLTEyLjgtMTIuOFYzNjQuMzczMzMzYzAtMzEuNjU4NjY3IDI1LjY4NTMzMy01Ny4zNDQgNTcuMzQ0LTU3LjM0NEg3NDUuODEzMzMzYzMxLjY1ODY2NyAwIDU3LjM0NCAyNS42ODUzMzMgNTcuMzQ0IDU3LjM0NHYxMTguNjk4NjY3YzAgNy4wODI2NjctNS43MTczMzMgMTIuOC0xMi44IDEyLjh6Ii8+PHBhdGggZmlsbD0iIzAwOThGMCIgZD0iTTc5MC42MTMzMzMgNDk1Ljg3MmMtMy4yNDI2NjcgMC02LjU3MDY2Ny0xLjI4LTkuMDQ1MzMzLTMuNzU0NjY3YTEyLjcxNDY2NyAxMi43MTQ2NjcgMCAwIDEgMC0xOC4wOTA2NjZsNDEuMzg2NjY3LTQxLjM4NjY2N2ExMi43MTQ2NjcgMTIuNzE0NjY3IDAgMCAxIDE4LjA5MDY2NiAwYzUuMDM0NjY3IDUuMDM0NjY3IDUuMDM0NjY3IDEzLjE0MTMzMyAwIDE4LjA5MDY2N2wtNDEuMzg2NjY2IDQxLjM4NjY2NmMtMi40NzQ2NjcgMi40NzQ2NjctNS44MDI2NjcgMy43NTQ2NjctOS4wNDUzMzQgMy43NTQ2Njd6Ii8+PHBhdGggZmlsbD0iIzAwOThGMCIgZD0iTTc5MC42MTMzMzMgNDk1Ljg3MmMtMy4yNDI2NjcgMC02LjU3MDY2Ny0xLjI4LTkuMDQ1MzMzLTMuNzU0NjY3bC00MS40NzItNDEuMzg2NjY2YTEyLjcxNDY2NyAxMi43MTQ2NjcgMCAwIDEgMC0xOC4wOTA2NjcgMTIuNzE0NjY3IDEyLjcxNDY2NyAwIDAgMSAxOC4wOTA2NjcgMGw0MS40NzIgNDEuMzg2NjY3YzUuMDM0NjY3IDUuMDM0NjY3IDUuMDM0NjY3IDEzLjE0MTMzMyAwIDE4LjA5MDY2Ni0yLjQ3NDY2NyAyLjQ3NDY2Ny01LjcxNzMzMyAzLjc1NDY2Ny05LjA0NTMzNCAzLjc1NDY2N3oiLz48cGF0aCBmaWxsPSIjMzMzMzMzIiBkPSJNNDgwIDU3MS4xMzZjLTMzLjUzNiAwLTYwLjc1NzMzMy0yNy4yMjEzMzMtNjAuNzU3MzMzLTYwLjc1NzMzM3MyNy4yMjEzMzMtNjAuNzU3MzMzIDYwLjc1NzMzMy02MC43NTczMzQgNjAuNzU3MzMzIDI3LjIyMTMzMyA2MC43NTczMzMgNjAuNzU3MzM0LTI3LjIyMTMzMyA2MC43NTczMzMtNjAuNzU3MzMzIDYwLjc1NzMzM3ogbTAtOTUuOTE0NjY3Yy0xOS4zNzA2NjcgMC0zNS4xNTczMzMgMTUuNzg2NjY3LTM1LjE1NzMzMyAzNS4xNTczMzRzMTUuNzg2NjY3IDM1LjE1NzMzMyAzNS4xNTczMzMgMzUuMTU3MzMzIDM1LjE1NzMzMy0xNS43ODY2NjcgMzUuMTU3MzMzLTM1LjE1NzMzMy0xNS43ODY2NjctMzUuMTU3MzMzLTM1LjE1NzMzMy0zNS4xNTczMzR6TTU3NiA3MTYuOTcwNjY3Yy03LjA4MjY2NyAwLTEyLjgtNS43MTczMzMtMTIuOC0xMi44IDAtNDUuOTA5MzMzLTM3LjI5MDY2Ny04My4yLTgzLjItODMuMnMtODMuMiAzNy4yOTA2NjctODMuMiA4My4yYzAgNy4wODI2NjctNS43MTczMzMgMTIuOC0xMi44IDEyLjhzLTEyLjgtNS43MTczMzMtMTIuOC0xMi44YzAtNTkuOTg5MzMzIDQ4LjgxMDY2Ny0xMDguOCAxMDguOC0xMDguOFM1ODguOCA2NDQuMTgxMzMzIDU4OC44IDcwNC4xNzA2NjdjMCA3LjA4MjY2Ny01LjcxNzMzMyAxMi44LTEyLjggMTIuOHoiLz48cGF0aCBmaWxsPSIjMzMzMzMzIiBkPSJNNjcyIDU3MS4xMzZjLTMzLjUzNiAwLTYwLjc1NzMzMy0yNy4yMjEzMzMtNjAuNzU3MzMzLTYwLjc1NzMzM3MyNy4yMjEzMzMtNjAuNzU3MzMzIDYwLjc1NzMzMy02MC43NTczMzQgNjAuNzU3MzMzIDI3LjIyMTMzMyA2MC43NTczMzMgNjAuNzU3MzM0LTI3LjIyMTMzMyA2MC43NTczMzMtNjAuNzU3MzMzIDYwLjc1NzMzM3ogbTAtOTUuOTE0NjY3Yy0xOS4zNzA2NjcgMC0zNS4xNTczMzMgMTUuNzg2NjY3LTM1LjE1NzMzMyAzNS4xNTczMzRzMTUuNzg2NjY3IDM1LjE1NzMzMyAzNS4xNTczMzMgMzUuMTU3MzMzIDM1LjE1NzMzMy0xNS43ODY2NjcgMzUuMTU3MzMzLTM1LjE1NzMzMy0xNS43ODY2NjctMzUuMTU3MzMzLTM1LjE1NzMzMy0zNS4xNTczMzR6TTc2OCA3MTYuOTcwNjY3Yy03LjA4MjY2NyAwLTEyLjgtNS43MTczMzMtMTIuOC0xMi44IDAtNDUuOTA5MzMzLTM3LjI5MDY2Ny04My4yLTgzLjItODMuMlM1ODguOCA2NTguMjYxMzMzIDU4OC44IDcwNC4xNzA2NjdjMCA3LjA4MjY2Ny01LjcxNzMzMyAxMi44LTEyLjggMTIuOHMtMTIuOC01LjcxNzMzMy0xMi44LTEyLjhjMC01OS45ODkzMzMgNDguODEwNjY3LTEwOC44IDEwOC44LTEwOC44Uzc4MC44IDY0NC4xODEzMzMgNzgwLjggNzA0LjE3MDY2N2MwIDcuMDgyNjY3LTUuNzE3MzMzIDEyLjgtMTIuOCAxMi44eiIvPjxwYXRoIGZpbGw9IiMzMzMzMzMiIGQ9Ik0zODQgNzE2Ljk3MDY2N2MtNy4wODI2NjcgMC0xMi44LTUuNzE3MzMzLTEyLjgtMTIuOCAwLTQ1LjkwOTMzMy0zNy4yOTA2NjctODMuMi04My4yLTgzLjJTMjA0LjggNjU4LjI2MTMzMyAyMDQuOCA3MDQuMTcwNjY3YzAgNy4wODI2NjctNS43MTczMzMgMTIuOC0xMi44IDEyLjhzLTEyLjgtNS43MTczMzMtMTIuOC0xMi44YzAtNTkuOTg5MzMzIDQ4LjgxMDY2Ny0xMDguOCAxMDguOC0xMDguOFMzOTYuOCA2NDQuMTgxMzMzIDM5Ni44IDcwNC4xNzA2NjdjMCA3LjA4MjY2Ny01LjcxNzMzMyAxMi44LTEyLjggMTIuOHpNMjg4IDU3MS4xMzZjLTMzLjUzNiAwLTYwLjc1NzMzMy0yNy4yMjEzMzMtNjAuNzU3MzMzLTYwLjc1NzMzM3MyNy4yMjEzMzMtNjAuNzU3MzMzIDYwLjc1NzMzMy02MC43NTczMzQgNjAuNzU3MzMzIDI3LjIyMTMzMyA2MC43NTczMzMgNjAuNzU3MzM0LTI3LjIyMTMzMyA2MC43NTczMzMtNjAuNzU3MzMzIDYwLjc1NzMzM3ogbTAtOTUuOTE0NjY3Yy0xOS4zNzA2NjcgMC0zNS4xNTczMzMgMTUuNzg2NjY3LTM1LjE1NzMzMyAzNS4xNTczMzRzMTUuNzg2NjY3IDM1LjE1NzMzMyAzNS4xNTczMzMgMzUuMTU3MzMzIDM1LjE1NzMzMy0xNS43ODY2NjcgMzUuMTU3MzMzLTM1LjE1NzMzMy0xNS43ODY2NjctMzUuMTU3MzMzLTM1LjE1NzMzMy0zNS4xNTczMzR6Ii8+PC9zdmc+;" parent="1" vertex="1">
          <mxGeometry x="670" y="189.52" width="95" height="58.46" as="geometry" />
        </mxCell>
        <mxCell id="06Fe5irtW_8lCx-ZwBkL-47" value="&lt;font style=&quot;font-size: 24px;&quot;&gt;...&lt;/font&gt;" style="text;html=1;align=center;verticalAlign=middle;whiteSpace=wrap;rounded=0;movable=1;resizable=1;rotatable=1;deletable=1;editable=1;locked=0;connectable=1;" parent="1" vertex="1">
          <mxGeometry x="767" y="208.5" width="60" height="30" as="geometry" />
        </mxCell>
      </root>
    </mxGraphModel>
  </diagram>
</mxfile>
